<?xml version="1.0" encoding="UTF-8" standalone="no"?>
<svg width="1200px" height="700px" viewBox="0 0 1200 700" version="1.1" xmlns="http://www.w3.org/2000/svg" xmlns:xlink="http://www.w3.org/1999/xlink" xmlns:sketch="http://www.bohemiancoding.com/sketch/ns">
    <!-- Generator: Sketch 3.1 (8751) - http://www.bohemiancoding.com/sketch -->
    <title>level00</title>
    <desc>Created with Sketch.</desc>
    <defs></defs>
    <g id="Page-1" stroke="none" stroke-width="1" fill="none" fill-rule="evenodd" sketch:type="MSPage">
        <g id="bg" sketch:type="MSLayerGroup" transform="translate(0.000000, -8.000000)" stroke="#979797" fill="#D8D8D8">
            <rect id="Rectangle-1" sketch:type="MSShapeGroup" x="0" y="0" width="1200.17681" height="17.9142529"></rect>
            <rect id="Rectangle-2" sketch:type="MSShapeGroup" x="0" y="682.533037" width="1200.17681" height="17.9142529"></rect>
            <rect id="Rectangle-3" sketch:type="MSShapeGroup" x="0" y="17.9142529" width="16.1097558" height="664.618784"></rect>
            <rect id="Rectangle-4" sketch:type="MSShapeGroup" x="1184.06705" y="17.9142529" width="16.1097558" height="664.618784"></rect>
            <rect id="Rectangle-5" sketch:type="MSShapeGroup" x="379" y="604" width="510" height="78.4855176"></rect>
            <rect id="Rectangle-6" sketch:type="MSShapeGroup" x="532" y="526" width="357" height="78"></rect>
            <rect id="Rectangle-8" sketch:type="MSShapeGroup" x="709" y="447.514482" width="180" height="78.4855176"></rect>
            <rect id="Rectangle-8" sketch:type="MSShapeGroup" transform="translate(93.500000, 604.000000) rotate(45.000000) translate(-93.500000, -604.000000) " x="-28" y="594" width="243" height="20"></rect>
            <rect id="Rectangle-9" sketch:type="MSShapeGroup" transform="translate(1107.500000, 93.000000) rotate(45.000000) translate(-1107.500000, -93.000000) " x="986" y="83" width="243" height="20"></rect>
            <rect id="Rectangle-12" sketch:type="MSShapeGroup" x="999" y="470" width="29" height="10"></rect>
            <rect id="Rectangle-10" sketch:type="MSShapeGroup" x="1018" y="480" width="10" height="203"></rect>
            <rect id="Rectangle-11" sketch:type="MSShapeGroup" x="999" y="480" width="10" height="203"></rect>
        </g>
        <g id="falling" sketch:type="MSLayerGroup" transform="translate(903.000000, 68.000000)" stroke="#979797" fill="#D8D8D8">
            <polygon id="Polygon-1" sketch:type="MSShapeGroup" points="20.5 0 38.2535208 10.25 38.2535208 30.75 20.5 41 2.74647922 30.75 2.74647922 10.25 "></polygon>
            <rect id="Rectangle-13" sketch:type="MSShapeGroup" x="107" y="418" width="7" height="30"></rect>
        </g>
    </g>
</svg>